HIERARCHY
ROOT Hips
{
	OFFSET 0.00000 0.00000 0.00000
	CHANNELS 6 Xposition Yposition Zposition Yrotation Zrotation Xrotation 
	JOINT Lumbar
	{
		OFFSET 0 0 0
		CHANNELS 3 Zrotation Xrotation Yrotation
		JOINT Neck
		{
			OFFSET 0.00 0.2701 0.00
			CHANNELS 3 Zrotation Xrotation Yrotation
			End Site
			{
				OFFSET 0.00 0.1379 0.00
			}
		}
		JOINT RightShoulder
		{
			OFFSET 0.0119 0.2289 0.1181
			CHANNELS 3 Zrotation Xrotation Yrotation
			JOINT RightElbow
			{
				OFFSET 0.00 -0.1475 0.00
				CHANNELS 2 Zrotation Yrotation
				JOINT RightWrist
				{
					OFFSET 0.00 -0.1605 0.00
					CHANNELS 2 Zrotation Xrotation
					End Site
					{
						OFFSET 0.0040 -0.1068 0.0006
					}
				}
			}
		}
		JOINT LeftShoulder
		{
			OFFSET 0.0119 0.2289 -0.1181
			CHANNELS 3 Zrotation Xrotation Yrotation
			JOINT LeftElbow
			{
				OFFSET 0.00 -0.1475 0.00
				CHANNELS 2 Zrotation Yrotation
				JOINT LeftWrist
				{
					OFFSET 0.00 -0.1605 0.00
					CHANNELS 2 Zrotation Xrotation
					End Site
					{
						OFFSET 0.0040 -0.1068 -0.0006
					}
				}
			}
		}
	}
	JOINT RightHip
	{
		OFFSET 0.0316 -0.0424 0.0458
		CHANNELS 3 Zrotation Xrotation Yrotation
		JOINT RightKnee
		{
			OFFSET 0.00 -0.2438 0.00
			CHANNELS 1 Zrotation
			JOINT RightAnkle
			{
				OFFSET 0.00 -0.2449 0.00
				CHANNELS 3 Zrotation Xrotation Yrotation
				End Site
				{
					OFFSET 0.1237 -0.0542 0.0051
				}
			}
		}
	}
	JOINT LeftHip
	{
		OFFSET 0.0316 -0.0424 -0.0458
		CHANNELS 3 Zrotation Xrotation Yrotation
		JOINT LeftKnee
		{
			OFFSET 0.00 -0.2438 0.00
			CHANNELS 1 Zrotation
			JOINT LeftAnkle
			{
				OFFSET 0.00 -0.2449 0.00
				CHANNELS 3 Zrotation Xrotation Yrotation
				End Site
				{
					OFFSET 0.1237 -0.0542 -0.0051
				}
			}
		}
	}
}
MOTION
Frames: 25
Frame Time: 0.02
0.38388 -0.04381 -0.00027 179.96907 0 0.76373 60.47569 7.19196 46.93069 55.06672 -42.19043 -21.74427 25.63341 -133.19571 -78.19214 106.71301 46.66657 -57.04333 -0.65325 23.86185 131.72854 83.97475 108.35874 -46.48867 -43.30657 0.03444 105.64994 13.62548 -38.63372 -35.71145 -33.00183 -3.64215 14.56287 90.19274 -2.93781 -0.40576 -5.88562 -14.74206 2.16734 3.79419
0.38416 -0.04392 0.00033 179.7552 0 0.66607 60.47569 7.64866 46.23295 54.85017 -41.83094 -20.2757 27.38016 -132.87535 -77.15903 107.2216 45.09066 -55.17399 -0.34411 23.50075 131.2526 84.12815 108.7122 -46.85969 -43.64438 0.09873 106.36197 13.6277 -38.70483 -35.23185 -32.87242 -3.78249 14.30189 90.25525 -2.77057 -0.52122 -5.96448 -14.85797 2.25556 3.64354
0.38452 -0.04413 0.00096 179.49299 0 0.55865 60.47569 8.19049 45.38735 54.5819 -41.40935 -18.43471 29.57443 -132.47566 -75.81975 107.89693 43.17147 -52.94293 0.04196 23.00123 130.67319 84.34423 109.19014 -47.32014 -44.25091 0.1871 107.1463 13.64672 -38.86887 -34.52128 -32.76742 -4.01008 13.38688 90.36939 -2.53686 -0.46894 -6.12009 -14.93688 2.36286 3.40758
0.38486 -0.0443 0.00157 179.25015 0 0.4617 60.47569 8.69249 44.62332 54.31969 -41.00975 -16.82837 31.52863 -132.10444 -74.64978 108.51962 41.36796 -50.95397 0.40367 22.58986 130.13913 84.52425 109.63442 -47.68745 -44.70802 0.25602 107.90064 13.65751 -38.93897 -33.91077 -32.63454 -4.18213 12.76698 90.46228 -2.33036 -0.49262 -6.24502 -15.04171 2.45458 3.22753
0.38516 -0.04444 0.00221 179.01882 0 0.337 60.47569 9.19962 43.79689 54.13165 -40.63513 -14.94792 33.63201 -131.76217 -73.36206 109.04416 39.71878 -48.63643 0.72347 22.07395 129.61378 84.73744 109.98103 -48.27358 -45.2748 0.36034 108.64757 13.67139 -39.22352 -33.31647 -32.57029 -4.41538 12.16417 90.54478 -2.13776 -0.52456 -6.34995 -15.11344 2.57519 2.9826
0.38554 -0.04466 0.00278 178.75249 0 0.26921 60.47569 9.71526 43.06609 53.77563 -40.19432 -13.54617 35.54178 -131.34413 -72.2333 109.81301 37.6825 -46.91189 1.14597 21.74043 129.0429 84.89552 110.56219 -48.42708 -45.68416 0.39709 109.42528 13.68143 -39.08119 -32.63935 -32.37243 -4.54361 11.36481 90.6609 -1.90062 -0.49568 -6.51424 -15.24211 2.64079 2.84866
0.38616 -0.04504 0.00315 178.39324 0 0.35437 60.47569 10.2442 42.6345 52.9808 -39.58379 -13.59625 36.70112 -130.7109 -71.73769 111.21344 34.5384 -46.98869 1.85554 21.97096 128.39506 84.88495 111.74593 -47.35832 -45.52679 0.23859 110.26955 13.69134 -37.7855 -31.73968 -31.76616 -4.36707 10.21438 90.86528 -1.54833 -0.3528 -6.84039 -15.55149 2.54335 3.05466
0.38686 -0.04549 0.00344 178.00175 0 0.49878 60.47569 10.77664 42.30481 52.01664 -38.90868 -14.13468 37.66964 -130.01022 -71.3886 112.8535 31.03872 -47.66509 2.66185 22.38861 127.69831 84.81228 113.16394 -45.85569 -45.21138 0.01218 111.14099 13.69413 -36.05067 -30.77387 -31.03056 -4.08171 8.8829 91.10018 -1.15475 -0.15141 -7.22076 -15.9162 2.39109 3.37209
0.38751 -0.04593 0.00375 177.63017 0 0.62038 60.47569 11.30089 41.92919 51.12175 -38.2656 -14.42329 38.79437 -129.35554 -70.89697 114.38659 27.78496 -48.01426 3.40872 22.6984 127.01176 84.77452 114.48444 -44.55156 -45.01511 -0.18173 112.0008 13.69086 -34.4846 -29.87153 -30.37617 -3.84258 7.6117 91.31646 -0.78536 0.03275 -7.56623 -16.24552 2.26808 3.62931
0.38823 -0.04628 0.0041 177.23478 0 0.72351 60.47569 11.85693 41.54622 50.25677 -37.61187 -14.81342 39.64055 -128.62815 -70.72347 115.92123 24.16914 -48.56784 4.22232 23.08431 126.38222 84.72957 115.77217 -43.23148 -44.63938 -0.38323 112.86339 13.72775 -33.04557 -28.82064 -29.62852 -3.61924 6.40715 91.55578 -0.39095 0.18388 -7.95879 -16.61682 2.1273 3.92392
0.38881 -0.04682 0.00435 176.88191 0 0.88025 60.47569 12.34528 41.20539 49.29083 -36.96222 -15.11694 41.01685 -128.04367 -69.91589 117.5025 21.21994 -48.86028 4.92055 23.37723 125.6113 84.66039 117.1813 -41.85729 -44.58274 -0.58348 113.72166 13.67865 -31.24414 -28.06575 -29.04335 -3.33701 5.03367 91.75217 -0.03948 0.4146 -8.2637 -16.91433 2.01045 4.1684
0.38896 -0.04788 0.00437 176.65492 0 1.16273 60.47569 12.65596 40.95161 48.07965 -36.37221 -15.0274 43.89473 -127.81913 -67.40483 119.19642 20.27001 -48.12837 5.26084 23.20171 124.56293 84.73182 118.87354 -40.30713 -45.56499 -0.77849 114.59465 13.39774 -28.48377 -28.15138 -28.94529 -2.91064 3.20364 91.83595 0.18105 0.8577 -8.32634 -16.9936 1.97138 4.24599
0.38896 -0.0491 0.0043 176.47192 0 1.49865 60.47569 12.89626 40.7388 46.7741 -35.7839 -14.84068 47.31374 -127.75315 -64.23294 120.92116 19.99473 -47.13786 5.48345 22.95683 123.35199 84.73825 120.6769 -38.75012 -46.8524 -0.96637 115.45534 13.02983 -25.38618 -28.53676 -29.01415 -2.42994 1.21991 91.87307 0.35701 1.37635 -8.29677 -16.99668 1.95845 4.27007
0.38905 -0.05022 0.00424 176.26873 0 1.81526 60.47569 13.16153 40.51019 45.51763 -35.17234 -14.72481 50.48648 -127.64543 -61.31514 122.60187 19.36148 -46.3781 5.77082 22.85448 122.15441 84.65624 122.42713 -37.27232 -47.91785 -1.14904 116.3 12.69901 -22.48492 -28.78181 -29.0016 -1.97898 -0.66808 91.92209 0.55452 1.85553 -8.29963 -17.03586 1.93465 4.31969
0.38908 -0.05148 0.00428 176.06545 0 2.11285 60.47569 13.4559 40.27099 44.23051 -34.64876 -14.51916 53.64758 -127.39722 -58.61236 124.41395 18.91972 -45.18638 6.01717 22.29403 121.22551 85.09693 124.20242 -35.42412 -49.32058 -1.37334 117.23871 12.37789 -19.38435 -29.04281 -29.00662 -1.50273 -2.67358 92.01006 0.74809 2.36016 -8.34163 -17.07219 1.90493 4.36745
0.38917 -0.05247 0.0041 175.87293 0 2.46208 60.47569 13.67376 40.06494 42.98523 -33.94899 -14.46349 56.97234 -127.49285 -55.28419 125.96141 18.26002 -44.79335 6.31577 22.66369 119.68028 84.40075 125.94169 -34.39409 -50.10655 -1.50385 117.97602 12.01649 -16.62729 -29.34132 -29.01807 -1.06794 -4.46654 92.00722 0.93869 2.82689 -8.283 -17.09383 1.89418 4.40559
0.38944 -0.05264 0.00338 175.70239 0 2.94023 60.47569 13.68945 39.91459 41.89477 -32.7107 -14.90868 60.53978 -128.39011 -50.54959 126.72535 16.70733 -46.94063 6.81887 25.65559 116.63273 80.87327 127.61163 -35.23892 -49.02053 -1.41769 118.17841 11.56103 -14.88017 -29.68181 -28.99305 -0.759 -5.64818 91.74895 1.13185 3.18731 -7.9381 -17.10881 1.93209 4.42381
0.38976 -0.05252 0.00245 175.5409 0 3.4686 60.47569 13.63171 39.79853 40.8474 -31.30351 -15.49356 64.26519 -129.64753 -45.178 127.22757 14.94342 -49.84742 7.37088 29.57291 112.9407 76.15412 129.22791 -36.965 -47.3231 -1.23113 118.1747 11.06903 -13.49662 -30.04749 -28.97217 -0.49455 -6.60678 91.40357 1.32316 3.50349 -7.50038 -17.10863 1.98801 4.4345
0.39006 -0.05255 0.00162 175.37329 0 3.97375 60.47569 13.61329 39.68569 39.77068 -30.00971 -15.97134 67.97378 -130.81336 -39.99323 127.88009 13.35312 -52.22482 7.88113 33.04797 109.43956 71.78365 130.83211 -38.5641 -45.9663 -1.06148 118.25364 10.5962 -11.96263 -30.39476 -28.95848 -0.21159 -7.65834 91.10872 1.5155 3.82859 -7.12549 -17.10494 2.03417 4.4528
0.39036 -0.05253 0.00077 175.21511 0 4.48136 60.47569 13.56871 39.50307 38.73222 -28.5674 -16.63199 71.48267 -131.68496 -35.21907 128.40792 11.43374 -55.36943 8.47544 36.6336 106.36445 68.20692 132.60119 -39.07625 -44.34905 -1.00603 118.37989 10.10867 -10.35393 -30.78338 -28.91107 0.08047 -8.75248 90.76683 1.70643 4.20367 -6.66121 -17.14201 2.08774 4.45313
0.39067 -0.05253 -9e-05 175.03957 0 4.99649 60.47569 13.56032 39.46323 37.62503 -27.3866 -16.94389 75.42095 -133.24706 -29.44682 129.12474 10.17185 -57.1021 8.90075 40.18291 102.24966 62.71774 134.00396 -41.97614 -43.13266 -0.69751 118.3573 9.64525 -8.99192 -31.086 -28.93417 0.34236 -9.70093 90.50185 1.89929 4.46303 -6.36105 -17.09222 2.12997 4.48788
0.39106 -0.0527 -0.00093 174.80794 0 5.50763 60.47569 13.6853 39.89423 36.32045 -27.03508 -16.28056 80.65028 -136.66525 -21.09067 130.49377 10.51223 -54.70411 8.90878 43.63534 95.44367 52.05002 134.47589 -52.00946 -43.0994 0.36037 117.98634 9.2492 -8.22237 -31.15978 -29.13754 0.53067 -10.31727 90.47951 2.10754 4.41424 -6.54812 -16.80071 2.13503 4.63626
0.39145 -0.05289 -0.00177 174.55961 0 6.02678 60.47569 13.84655 40.45043 34.94361 -26.94006 -15.26017 86.27666 -140.74947 -11.76158 132.04746 11.5689 -50.85178 8.7349 46.9776 87.61785 39.54103 134.5642 -64.28767 -43.49745 1.65662 117.47029 8.88082 -7.69039 -31.14143 -29.41299 0.68995 -10.79085 90.53623 2.31608 4.25004 -6.90214 -16.4236 2.12822 4.817
0.39183 -0.05306 -0.00262 174.32232 0 6.54994 60.47569 13.98163 40.89496 33.60038 -26.68467 -14.38624 91.6242 -144.51434 -2.85873 133.4755 12.46653 -47.71827 8.60368 50.21878 80.23575 27.99104 134.78779 -75.02571 -43.75143 2.79292 117.01293 8.50539 -7.0511 -31.15461 -29.66394 0.86317 -11.31886 90.551 2.51854 4.1379 -7.17243 -16.0899 2.12759 4.97175
0.39227 -0.05327 -0.00346 174.06999 0 7.04201 60.47569 14.15565 41.57706 32.26168 -26.60914 -13.574 97.39323 -148.39776 6.03767 135.0789 12.64951 -44.43647 8.63992 54.12662 72.88351 15.85631 135.18925 -87.93498 -43.78706 4.1457 116.57967 8.10465 -6.42095 -31.21431 -29.88198 1.03224 -11.88374 90.58777 2.74653 4.02584 -7.4716 -15.73717 2.12411 5.17242
